<?xml version="1.0" encoding="UTF-8" standalone="no"?>
<svg
   width="255"
   height="261"
   viewBox="0 0 255 261"
   fill="none"
   version="1.1"
   id="svg63"
   sodipodi:docname="Count-2.svg"
   inkscape:version="1.1.2 (b8e25be833, 2022-02-05)"
   xmlns:inkscape="http://www.inkscape.org/namespaces/inkscape"
   xmlns:sodipodi="http://sodipodi.sourceforge.net/DTD/sodipodi-0.dtd"
   xmlns="http://www.w3.org/2000/svg"
   xmlns:svg="http://www.w3.org/2000/svg">
  <sodipodi:namedview
     id="namedview65"
     pagecolor="#ffffff"
     bordercolor="#999999"
     borderopacity="1"
     inkscape:pageshadow="0"
     inkscape:pageopacity="0"
     inkscape:pagecheckerboard="0"
     showgrid="false"
     inkscape:snap-text-baseline="true"
     inkscape:snap-center="false"
     inkscape:snap-object-midpoints="false"
     inkscape:snap-others="false"
     inkscape:zoom="3.183908"
     inkscape:cx="78.048736"
     inkscape:cy="130.65704"
     inkscape:window-width="1920"
     inkscape:window-height="1017"
     inkscape:window-x="-8"
     inkscape:window-y="-8"
     inkscape:window-maximized="1"
     inkscape:current-layer="svg63" />
  <g
     filter="url(#filter0_d)"
     id="g40">
    <path
       d="M66.8701 44.0502C103.023 17.7837 151.977 17.7837 188.13 44.0502C224.283 70.3166 239.41 116.875 225.601 159.375C211.792 201.875 172.187 230.65 127.5 230.65C82.8129 230.65 43.2079 201.875 29.3988 159.375C15.5898 116.875 30.7175 70.3166 66.8701 44.0502Z"
       fill="#113CFC"
       id="path38" />
  </g>
  <path
     d="M85.739 169L82.499 164.32H82.307H78.923V169H75.035V152.2H82.307C83.795 152.2 85.083 152.448 86.171 152.944C87.275 153.44 88.123 154.144 88.715 155.056C89.307 155.968 89.603 157.048 89.603 158.296C89.603 159.544 89.299 160.624 88.691 161.536C88.099 162.432 87.251 163.12 86.147 163.6L89.915 169H85.739ZM85.667 158.296C85.667 157.352 85.363 156.632 84.755 156.136C84.147 155.624 83.259 155.368 82.091 155.368H78.923V161.224H82.091C83.259 161.224 84.147 160.968 84.755 160.456C85.363 159.944 85.667 159.224 85.667 158.296ZM105.067 162.592C105.067 162.64 105.043 162.976 104.995 163.6H95.2274C95.4034 164.4 95.8194 165.032 96.4754 165.496C97.1314 165.96 97.9474 166.192 98.9234 166.192C99.5954 166.192 100.187 166.096 100.699 165.904C101.227 165.696 101.715 165.376 102.163 164.944L104.155 167.104C102.939 168.496 101.163 169.192 98.8274 169.192C97.3714 169.192 96.0834 168.912 94.9634 168.352C93.8434 167.776 92.9794 166.984 92.3714 165.976C91.7634 164.968 91.4594 163.824 91.4594 162.544C91.4594 161.28 91.7554 160.144 92.3474 159.136C92.9554 158.112 93.7794 157.32 94.8194 156.76C95.8754 156.184 97.0514 155.896 98.3474 155.896C99.6114 155.896 100.755 156.168 101.779 156.712C102.803 157.256 103.603 158.04 104.179 159.064C104.771 160.072 105.067 161.248 105.067 162.592ZM98.3714 158.728C97.5234 158.728 96.8114 158.968 96.2354 159.448C95.6594 159.928 95.3074 160.584 95.1794 161.416H101.539C101.411 160.6 101.059 159.952 100.483 159.472C99.9074 158.976 99.2034 158.728 98.3714 158.728ZM128.062 156.088L123.382 169H119.782L116.878 160.984L113.878 169H110.278L105.622 156.088H109.15L112.198 164.824L115.366 156.088H118.534L121.606 164.824L124.75 156.088H128.062ZM134.588 155.896C136.588 155.896 138.124 156.376 139.196 157.336C140.268 158.28 140.804 159.712 140.804 161.632V169H137.3V167.392C136.596 168.592 135.284 169.192 133.364 169.192C132.372 169.192 131.508 169.024 130.772 168.688C130.052 168.352 129.5 167.888 129.116 167.296C128.732 166.704 128.54 166.032 128.54 165.28C128.54 164.08 128.988 163.136 129.884 162.448C130.796 161.76 132.196 161.416 134.084 161.416H137.06C137.06 160.6 136.812 159.976 136.316 159.544C135.82 159.096 135.076 158.872 134.084 158.872C133.396 158.872 132.716 158.984 132.044 159.208C131.388 159.416 130.828 159.704 130.364 160.072L129.02 157.456C129.724 156.96 130.564 156.576 131.54 156.304C132.532 156.032 133.548 155.896 134.588 155.896ZM134.3 166.672C134.94 166.672 135.508 166.528 136.004 166.24C136.5 165.936 136.852 165.496 137.06 164.92V163.6H134.492C132.956 163.6 132.188 164.104 132.188 165.112C132.188 165.592 132.372 165.976 132.74 166.264C133.124 166.536 133.644 166.672 134.3 166.672ZM147.769 157.792C148.217 157.168 148.817 156.696 149.569 156.376C150.337 156.056 151.217 155.896 152.209 155.896V159.352C151.793 159.32 151.513 159.304 151.369 159.304C150.297 159.304 149.457 159.608 148.849 160.216C148.241 160.808 147.937 161.704 147.937 162.904V169H144.193V156.088H147.769V157.792ZM167.47 151.192V169H163.894V167.512C162.966 168.632 161.622 169.192 159.862 169.192C158.646 169.192 157.542 168.92 156.55 168.376C155.574 167.832 154.806 167.056 154.246 166.048C153.686 165.04 153.406 163.872 153.406 162.544C153.406 161.216 153.686 160.048 154.246 159.04C154.806 158.032 155.574 157.256 156.55 156.712C157.542 156.168 158.646 155.896 159.862 155.896C161.51 155.896 162.798 156.416 163.726 157.456V151.192H167.47ZM160.51 166.12C161.454 166.12 162.238 165.8 162.862 165.16C163.486 164.504 163.798 163.632 163.798 162.544C163.798 161.456 163.486 160.592 162.862 159.952C162.238 159.296 161.454 158.968 160.51 158.968C159.55 158.968 158.758 159.296 158.134 159.952C157.51 160.592 157.198 161.456 157.198 162.544C157.198 163.632 157.51 164.504 158.134 165.16C158.758 165.8 159.55 166.12 160.51 166.12ZM175.279 169.192C174.207 169.192 173.159 169.064 172.135 168.808C171.111 168.536 170.295 168.2 169.687 167.8L170.935 165.112C171.511 165.48 172.207 165.784 173.023 166.024C173.839 166.248 174.639 166.36 175.423 166.36C177.007 166.36 177.799 165.968 177.799 165.184C177.799 164.816 177.583 164.552 177.151 164.392C176.719 164.232 176.055 164.096 175.159 163.984C174.103 163.824 173.231 163.64 172.543 163.432C171.855 163.224 171.255 162.856 170.743 162.328C170.247 161.8 169.999 161.048 169.999 160.072C169.999 159.256 170.231 158.536 170.695 157.912C171.175 157.272 171.863 156.776 172.759 156.424C173.671 156.072 174.743 155.896 175.975 155.896C176.887 155.896 177.791 156 178.687 156.208C179.599 156.4 180.351 156.672 180.943 157.024L179.695 159.688C178.559 159.048 177.319 158.728 175.975 158.728C175.175 158.728 174.575 158.84 174.175 159.064C173.775 159.288 173.575 159.576 173.575 159.928C173.575 160.328 173.791 160.608 174.223 160.768C174.655 160.928 175.343 161.08 176.287 161.224C177.343 161.4 178.207 161.592 178.879 161.8C179.551 161.992 180.135 162.352 180.631 162.88C181.127 163.408 181.375 164.144 181.375 165.088C181.375 165.888 181.135 166.6 180.655 167.224C180.175 167.848 179.471 168.336 178.543 168.688C177.631 169.024 176.543 169.192 175.279 169.192Z"
     fill="white"
     id="path44" />
  <defs
     id="defs61">
    <filter
       id="filter0_d"
       x="4.34375"
       y="14.3503"
       width="246.313"
       height="246.299"
       filterUnits="userSpaceOnUse"
       color-interpolation-filters="sRGB">
      <feFlood
         flood-opacity="0"
         result="BackgroundImageFix"
         id="feFlood46" />
      <feColorMatrix
         in="SourceAlpha"
         type="matrix"
         values="0 0 0 0 0 0 0 0 0 0 0 0 0 0 0 0 0 0 127 0"
         result="hardAlpha"
         id="feColorMatrix48" />
      <feOffset
         dy="10"
         id="feOffset50" />
      <feGaussianBlur
         stdDeviation="10"
         id="feGaussianBlur52" />
      <feColorMatrix
         type="matrix"
         values="0 0 0 0 0.160784 0 0 0 0 0.160784 0 0 0 0 0.164706 0 0 0 0.07 0"
         id="feColorMatrix54" />
      <feBlend
         mode="normal"
         in2="BackgroundImageFix"
         result="effect1_dropShadow"
         id="feBlend56" />
      <feBlend
         mode="normal"
         in="SourceGraphic"
         in2="effect1_dropShadow"
         result="shape"
         id="feBlend58" />
    </filter>
  </defs>
  <text
     xml:space="preserve"
     style="font-style:normal;font-variant:normal;font-weight:normal;font-stretch:normal;font-size:53.1564px;line-height:1.25;font-family:Impact;-inkscape-font-specification:Impact;font-variant-ligatures:normal;font-variant-caps:normal;font-variant-numeric:normal;font-variant-east-asian:normal;fill:#ffffff;fill-opacity:1;stroke:none;stroke-width:1.32891"
     x="77.54287"
     y="147.31055"
     id="text13981"
     transform="scale(1.1481793,0.87094409)"><tspan
       sodipodi:role="line"
       id="tspan13979"
       x="77.54287"
       y="147.31055"
       style="font-style:normal;font-variant:normal;font-weight:normal;font-stretch:normal;font-size:53.1564px;font-family:Impact;-inkscape-font-specification:Impact;font-variant-ligatures:normal;font-variant-caps:normal;font-variant-numeric:normal;font-variant-east-asian:normal;fill:#ffffff;fill-opacity:1;stroke-width:1.32891">5%</tspan></text>
</svg>
