<svg width="255" height="261" viewBox="0 0 255 261" fill="none" xmlns="http://www.w3.org/2000/svg">
<g filter="url(#filter0_d)">
<path d="M66.8701 44.0502C103.023 17.7837 151.977 17.7837 188.13 44.0502C224.283 70.3166 239.41 116.875 225.601 159.375C211.792 201.875 172.187 230.65 127.5 230.65C82.8129 230.65 43.2079 201.875 29.3988 159.375C15.5898 116.875 30.7175 70.3166 66.8701 44.0502Z" fill="#113CFC"/>
</g>
<path d="M110.598 106.84C113.382 107.416 115.51 108.568 116.982 110.296C118.486 111.992 119.238 114.056 119.238 116.488C119.238 118.472 118.694 120.312 117.606 122.008C116.55 123.704 114.918 125.08 112.71 126.136C110.534 127.16 107.83 127.672 104.598 127.672C102.23 127.672 99.8784 127.384 97.5424 126.808C95.2384 126.232 93.2384 125.416 91.5424 124.36L94.9984 117.208C96.3104 118.104 97.7824 118.792 99.4144 119.272C101.078 119.752 102.71 119.992 104.31 119.992C105.942 119.992 107.238 119.688 108.198 119.08C109.158 118.472 109.638 117.608 109.638 116.488C109.638 114.312 107.926 113.224 104.502 113.224H100.518V107.224L106.518 100.744H93.2704V93.4H117.558V99.352L110.598 106.84ZM129.836 111.592C127.308 111.592 125.244 110.76 123.644 109.096C122.044 107.432 121.244 105.16 121.244 102.28C121.244 100.392 121.612 98.744 122.348 97.336C123.084 95.928 124.092 94.856 125.372 94.12C126.684 93.352 128.172 92.968 129.836 92.968C132.396 92.968 134.476 93.816 136.076 95.512C137.676 97.176 138.476 99.432 138.476 102.28C138.476 105.16 137.676 107.432 136.076 109.096C134.476 110.76 132.396 111.592 129.836 111.592ZM149.708 93.4H156.62L133.676 127H126.764L149.708 93.4ZM129.836 107.032C130.7 107.032 131.388 106.648 131.9 105.88C132.412 105.112 132.668 103.912 132.668 102.28C132.668 100.648 132.412 99.448 131.9 98.68C131.388 97.912 130.7 97.528 129.836 97.528C129.004 97.528 128.316 97.928 127.772 98.728C127.26 99.496 127.004 100.68 127.004 102.28C127.004 103.88 127.26 105.08 127.772 105.88C128.316 106.648 129.004 107.032 129.836 107.032ZM153.548 127.432C150.988 127.432 148.908 126.6 147.307 124.936C145.74 123.272 144.956 121 144.956 118.12C144.956 115.272 145.756 113.016 147.356 111.352C148.956 109.656 151.02 108.808 153.548 108.808C156.108 108.808 158.188 109.656 159.788 111.352C161.388 113.016 162.188 115.272 162.188 118.12C162.188 121 161.388 123.272 159.788 124.936C158.188 126.6 156.108 127.432 153.548 127.432ZM153.548 122.872C154.412 122.872 155.1 122.488 155.612 121.72C156.124 120.952 156.38 119.752 156.38 118.12C156.38 116.488 156.124 115.288 155.612 114.52C155.1 113.752 154.412 113.368 153.548 113.368C152.684 113.368 151.996 113.752 151.484 114.52C150.972 115.288 150.716 116.488 150.716 118.12C150.716 119.752 150.972 120.952 151.484 121.72C151.996 122.488 152.684 122.872 153.548 122.872Z" fill="white"/>
<path d="M110.996 160.264C111.956 160.568 112.708 161.08 113.252 161.8C113.796 162.504 114.068 163.376 114.068 164.416C114.068 165.888 113.492 167.024 112.34 167.824C111.204 168.608 109.54 169 107.348 169H98.66V152.2H106.868C108.916 152.2 110.484 152.592 111.572 153.376C112.676 154.16 113.228 155.224 113.228 156.568C113.228 157.384 113.028 158.112 112.628 158.752C112.244 159.392 111.7 159.896 110.996 160.264ZM102.524 155.128V159.088H106.388C107.348 159.088 108.076 158.92 108.572 158.584C109.068 158.248 109.316 157.752 109.316 157.096C109.316 156.44 109.068 155.952 108.572 155.632C108.076 155.296 107.348 155.128 106.388 155.128H102.524ZM107.06 166.072C108.084 166.072 108.852 165.904 109.364 165.568C109.892 165.232 110.156 164.712 110.156 164.008C110.156 162.616 109.124 161.92 107.06 161.92H102.524V166.072H107.06ZM129.756 156.088V169H126.204V167.464C125.708 168.024 125.116 168.456 124.428 168.76C123.74 169.048 122.996 169.192 122.196 169.192C120.5 169.192 119.156 168.704 118.164 167.728C117.172 166.752 116.676 165.304 116.676 163.384V156.088H120.42V162.832C120.42 164.912 121.292 165.952 123.036 165.952C123.932 165.952 124.652 165.664 125.196 165.088C125.74 164.496 126.012 163.624 126.012 162.472V156.088H129.756ZM136.8 157.792C137.248 157.168 137.848 156.696 138.6 156.376C139.368 156.056 140.248 155.896 141.24 155.896V159.352C140.824 159.32 140.544 159.304 140.4 159.304C139.328 159.304 138.488 159.608 137.88 160.216C137.272 160.808 136.968 161.704 136.968 162.904V169H133.224V156.088H136.8V157.792ZM151.314 155.896C152.914 155.896 154.202 156.376 155.178 157.336C156.17 158.296 156.666 159.72 156.666 161.608V169H152.922V162.184C152.922 161.16 152.698 160.4 152.25 159.904C151.802 159.392 151.154 159.136 150.306 159.136C149.362 159.136 148.61 159.432 148.05 160.024C147.49 160.6 147.21 161.464 147.21 162.616V169H143.466V156.088H147.042V157.6C147.538 157.056 148.154 156.64 148.89 156.352C149.626 156.048 150.434 155.896 151.314 155.896Z" fill="white"/>
<defs>
<filter id="filter0_d" x="4.34375" y="14.3503" width="246.313" height="246.299" filterUnits="userSpaceOnUse" color-interpolation-filters="sRGB">
<feFlood flood-opacity="0" result="BackgroundImageFix"/>
<feColorMatrix in="SourceAlpha" type="matrix" values="0 0 0 0 0 0 0 0 0 0 0 0 0 0 0 0 0 0 127 0" result="hardAlpha"/>
<feOffset dy="10"/>
<feGaussianBlur stdDeviation="10"/>
<feColorMatrix type="matrix" values="0 0 0 0 0.160784 0 0 0 0 0.160784 0 0 0 0 0.164706 0 0 0 0.07 0"/>
<feBlend mode="normal" in2="BackgroundImageFix" result="effect1_dropShadow"/>
<feBlend mode="normal" in="SourceGraphic" in2="effect1_dropShadow" result="shape"/>
</filter>
</defs>
</svg>
