<?xml version="1.0" encoding="UTF-8" standalone="no"?>
<svg
   width="255"
   height="261"
   viewBox="0 0 255 261"
   fill="none"
   version="1.1"
   id="svg82244"
   sodipodi:docname="Count-3.svg"
   inkscape:version="1.1.2 (b8e25be833, 2022-02-05)"
   xmlns:inkscape="http://www.inkscape.org/namespaces/inkscape"
   xmlns:sodipodi="http://sodipodi.sourceforge.net/DTD/sodipodi-0.dtd"
   xmlns="http://www.w3.org/2000/svg"
   xmlns:svg="http://www.w3.org/2000/svg">
  <sodipodi:namedview
     id="namedview82246"
     pagecolor="#ffffff"
     bordercolor="#999999"
     borderopacity="1"
     inkscape:pageshadow="0"
     inkscape:pageopacity="0"
     inkscape:pagecheckerboard="0"
     showgrid="false"
     inkscape:zoom="3.183908"
     inkscape:cx="127.35921"
     inkscape:cy="130.65704"
     inkscape:window-width="1920"
     inkscape:window-height="1017"
     inkscape:window-x="-8"
     inkscape:window-y="-8"
     inkscape:window-maximized="1"
     inkscape:current-layer="svg82244" />
  <g
     filter="url(#filter0_d)"
     id="g82221">
    <path
       d="M66.8701 44.0502C103.023 17.7837 151.977 17.7837 188.13 44.0502C224.283 70.3166 239.41 116.875 225.601 159.375C211.792 201.875 172.187 230.65 127.5 230.65C82.8129 230.65 43.2079 201.875 29.3988 159.375C15.5898 116.875 30.7175 70.3166 66.8701 44.0502Z"
       fill="#113CFC"
       id="path82219" />
  </g>
  <path
     d="M79.987 169L79.963 158.92L75.019 167.224H73.267L68.347 159.136V169H64.699V152.2H67.915L74.203 162.64L80.395 152.2H83.587L83.635 169H79.987ZM92.5649 155.896C94.5649 155.896 96.1009 156.376 97.1729 157.336C98.2449 158.28 98.7809 159.712 98.7809 161.632V169H95.2769V167.392C94.5729 168.592 93.2609 169.192 91.3409 169.192C90.3489 169.192 89.4849 169.024 88.7489 168.688C88.0289 168.352 87.4769 167.888 87.0929 167.296C86.7089 166.704 86.5169 166.032 86.5169 165.28C86.5169 164.08 86.9649 163.136 87.8609 162.448C88.7729 161.76 90.1729 161.416 92.0609 161.416H95.0369C95.0369 160.6 94.7889 159.976 94.2929 159.544C93.7969 159.096 93.0529 158.872 92.0609 158.872C91.3729 158.872 90.6929 158.984 90.0209 159.208C89.3649 159.416 88.8049 159.704 88.3409 160.072L86.9969 157.456C87.7009 156.96 88.5409 156.576 89.5169 156.304C90.5089 156.032 91.5249 155.896 92.5649 155.896ZM92.2769 166.672C92.9169 166.672 93.4849 166.528 93.9809 166.24C94.4769 165.936 94.8289 165.496 95.0369 164.92V163.6H92.4689C90.9329 163.6 90.1649 164.104 90.1649 165.112C90.1649 165.592 90.3489 165.976 90.7169 166.264C91.1009 166.536 91.6209 166.672 92.2769 166.672ZM105.745 157.792C106.193 157.168 106.793 156.696 107.545 156.376C108.313 156.056 109.193 155.896 110.185 155.896V159.352C109.769 159.32 109.489 159.304 109.345 159.304C108.273 159.304 107.433 159.608 106.825 160.216C106.217 160.808 105.913 161.704 105.913 162.904V169H102.169V156.088H105.745V157.792ZM117.956 163.936L116.156 165.712V169H112.412V151.192H116.156V161.272L121.628 156.088H126.092L120.716 161.56L126.572 169H122.036L117.956 163.936ZM140.341 162.592C140.341 162.64 140.317 162.976 140.269 163.6H130.501C130.677 164.4 131.093 165.032 131.749 165.496C132.405 165.96 133.221 166.192 134.197 166.192C134.869 166.192 135.461 166.096 135.973 165.904C136.501 165.696 136.989 165.376 137.437 164.944L139.429 167.104C138.213 168.496 136.437 169.192 134.101 169.192C132.645 169.192 131.357 168.912 130.237 168.352C129.117 167.776 128.253 166.984 127.645 165.976C127.037 164.968 126.733 163.824 126.733 162.544C126.733 161.28 127.029 160.144 127.621 159.136C128.229 158.112 129.053 157.32 130.093 156.76C131.149 156.184 132.325 155.896 133.621 155.896C134.885 155.896 136.029 156.168 137.053 156.712C138.077 157.256 138.877 158.04 139.453 159.064C140.045 160.072 140.341 161.248 140.341 162.592ZM133.645 158.728C132.797 158.728 132.085 158.968 131.509 159.448C130.933 159.928 130.581 160.584 130.453 161.416H136.813C136.685 160.6 136.333 159.952 135.757 159.472C135.181 158.976 134.477 158.728 133.645 158.728ZM151.161 168.376C150.793 168.648 150.337 168.856 149.793 169C149.265 169.128 148.705 169.192 148.113 169.192C146.577 169.192 145.385 168.8 144.537 168.016C143.705 167.232 143.289 166.08 143.289 164.56V159.256H141.297V156.376H143.289V153.232H147.033V156.376H150.249V159.256H147.033V164.512C147.033 165.056 147.169 165.48 147.441 165.784C147.729 166.072 148.129 166.216 148.641 166.216C149.233 166.216 149.737 166.056 150.153 165.736L151.161 168.376ZM153.263 156.088H157.007V169H153.263V156.088ZM155.135 154.288C154.447 154.288 153.887 154.088 153.455 153.688C153.023 153.288 152.807 152.792 152.807 152.2C152.807 151.608 153.023 151.112 153.455 150.712C153.887 150.312 154.447 150.112 155.135 150.112C155.823 150.112 156.383 150.304 156.815 150.688C157.247 151.072 157.463 151.552 157.463 152.128C157.463 152.752 157.247 153.272 156.815 153.688C156.383 154.088 155.823 154.288 155.135 154.288ZM168.33 155.896C169.93 155.896 171.218 156.376 172.194 157.336C173.186 158.296 173.682 159.72 173.682 161.608V169H169.938V162.184C169.938 161.16 169.714 160.4 169.266 159.904C168.818 159.392 168.17 159.136 167.322 159.136C166.378 159.136 165.626 159.432 165.066 160.024C164.506 160.6 164.226 161.464 164.226 162.616V169H160.482V156.088H164.058V157.6C164.554 157.056 165.17 156.64 165.906 156.352C166.642 156.048 167.45 155.896 168.33 155.896ZM190.536 156.088V166.84C190.536 169.208 189.92 170.968 188.688 172.12C187.456 173.272 185.656 173.848 183.288 173.848C182.04 173.848 180.856 173.696 179.736 173.392C178.616 173.088 177.688 172.648 176.952 172.072L178.44 169.384C178.984 169.832 179.672 170.184 180.504 170.44C181.336 170.712 182.168 170.848 183 170.848C184.296 170.848 185.248 170.552 185.856 169.96C186.48 169.384 186.792 168.504 186.792 167.32V166.768C185.816 167.84 184.456 168.376 182.712 168.376C181.528 168.376 180.44 168.12 179.448 167.608C178.472 167.08 177.696 166.344 177.12 165.4C176.544 164.456 176.256 163.368 176.256 162.136C176.256 160.904 176.544 159.816 177.12 158.872C177.696 157.928 178.472 157.2 179.448 156.688C180.44 156.16 181.528 155.896 182.712 155.896C184.584 155.896 186.008 156.512 186.984 157.744V156.088H190.536ZM183.456 165.304C184.448 165.304 185.256 165.016 185.88 164.44C186.52 163.848 186.84 163.08 186.84 162.136C186.84 161.192 186.52 160.432 185.88 159.856C185.256 159.264 184.448 158.968 183.456 158.968C182.464 158.968 181.648 159.264 181.008 159.856C180.368 160.432 180.048 161.192 180.048 162.136C180.048 163.08 180.368 163.848 181.008 164.44C181.648 165.016 182.464 165.304 183.456 165.304Z"
     fill="white"
     id="path82225" />
  <defs
     id="defs82242">
    <filter
       id="filter0_d"
       x="4.34375"
       y="14.3503"
       width="246.313"
       height="246.299"
       filterUnits="userSpaceOnUse"
       color-interpolation-filters="sRGB">
      <feFlood
         flood-opacity="0"
         result="BackgroundImageFix"
         id="feFlood82227" />
      <feColorMatrix
         in="SourceAlpha"
         type="matrix"
         values="0 0 0 0 0 0 0 0 0 0 0 0 0 0 0 0 0 0 127 0"
         result="hardAlpha"
         id="feColorMatrix82229" />
      <feOffset
         dy="10"
         id="feOffset82231" />
      <feGaussianBlur
         stdDeviation="10"
         id="feGaussianBlur82233" />
      <feColorMatrix
         type="matrix"
         values="0 0 0 0 0.160784 0 0 0 0 0.160784 0 0 0 0 0.164706 0 0 0 0.07 0"
         id="feColorMatrix82235" />
      <feBlend
         mode="normal"
         in2="BackgroundImageFix"
         result="effect1_dropShadow"
         id="feBlend82237" />
      <feBlend
         mode="normal"
         in="SourceGraphic"
         in2="effect1_dropShadow"
         result="shape"
         id="feBlend82239" />
    </filter>
  </defs>
  <text
     xml:space="preserve"
     style="font-size:40px;line-height:1.25;font-family:Bahnschrift;-inkscape-font-specification:Bahnschrift"
     x="106.787"
     y="109.29964"
     id="text101187"><tspan
       sodipodi:role="line"
       id="tspan101185"
       x="106.787"
       y="109.29964" /></text>
  <text
     xml:space="preserve"
     style="font-size:40px;line-height:1.25;font-family:Bahnschrift;-inkscape-font-specification:Bahnschrift"
     x="111.49819"
     y="114.63899"
     id="text104887"><tspan
       sodipodi:role="line"
       id="tspan104885"
       x="111.49819"
       y="114.63899">3%</tspan></text>
  <text
     xml:space="preserve"
     style="font-size:40px;line-height:1.25;font-family:Bahnschrift;-inkscape-font-specification:Bahnschrift;white-space:pre;inline-size:33.3064"
     x="96.422386"
     y="117.15162"
     id="text108389"><tspan
       x="96.422386"
       y="117.15162"
       id="tspan148481">3</tspan></text>
  <text
     xml:space="preserve"
     style="font-style:normal;font-variant:normal;font-weight:normal;font-stretch:normal;font-size:53.202px;line-height:1.25;font-family:Impact;-inkscape-font-specification:Impact;fill:#ffffff;fill-opacity:1;stroke-width:1.33005"
     x="77.535301"
     y="147.58714"
     id="text123038"
     transform="scale(1.1505305,0.8691643)"><tspan
       sodipodi:role="line"
       id="tspan123036"
       x="77.535301"
       y="147.58714"
       style="stroke-width:1.33005">3%</tspan></text>
</svg>
