<svg width="255" height="261" viewBox="0 0 255 261" fill="none" xmlns="http://www.w3.org/2000/svg">
<g filter="url(#filter0_d)">
<path d="M66.8701 44.0502C103.023 17.7837 151.977 17.7837 188.13 44.0502C224.283 70.3166 239.41 116.875 225.601 159.375C211.792 201.875 172.187 230.65 127.5 230.65C82.8129 230.65 43.2079 201.875 29.3988 159.375C15.5898 116.875 30.7175 70.3166 66.8701 44.0502Z" fill="#113CFC"/>
</g>
<path d="M110.598 106.84C113.382 107.416 115.51 108.568 116.982 110.296C118.486 111.992 119.238 114.056 119.238 116.488C119.238 118.472 118.694 120.312 117.606 122.008C116.55 123.704 114.918 125.08 112.71 126.136C110.534 127.16 107.83 127.672 104.598 127.672C102.23 127.672 99.8784 127.384 97.5424 126.808C95.2384 126.232 93.2384 125.416 91.5424 124.36L94.9984 117.208C96.3104 118.104 97.7824 118.792 99.4144 119.272C101.078 119.752 102.71 119.992 104.31 119.992C105.942 119.992 107.238 119.688 108.198 119.08C109.158 118.472 109.638 117.608 109.638 116.488C109.638 114.312 107.926 113.224 104.502 113.224H100.518V107.224L106.518 100.744H93.2704V93.4H117.558V99.352L110.598 106.84ZM129.836 111.592C127.308 111.592 125.244 110.76 123.644 109.096C122.044 107.432 121.244 105.16 121.244 102.28C121.244 100.392 121.612 98.744 122.348 97.336C123.084 95.928 124.092 94.856 125.372 94.12C126.684 93.352 128.172 92.968 129.836 92.968C132.396 92.968 134.476 93.816 136.076 95.512C137.676 97.176 138.476 99.432 138.476 102.28C138.476 105.16 137.676 107.432 136.076 109.096C134.476 110.76 132.396 111.592 129.836 111.592ZM149.708 93.4H156.62L133.676 127H126.764L149.708 93.4ZM129.836 107.032C130.7 107.032 131.388 106.648 131.9 105.88C132.412 105.112 132.668 103.912 132.668 102.28C132.668 100.648 132.412 99.448 131.9 98.68C131.388 97.912 130.7 97.528 129.836 97.528C129.004 97.528 128.316 97.928 127.772 98.728C127.26 99.496 127.004 100.68 127.004 102.28C127.004 103.88 127.26 105.08 127.772 105.88C128.316 106.648 129.004 107.032 129.836 107.032ZM153.548 127.432C150.988 127.432 148.908 126.6 147.307 124.936C145.74 123.272 144.956 121 144.956 118.12C144.956 115.272 145.756 113.016 147.356 111.352C148.956 109.656 151.02 108.808 153.548 108.808C156.108 108.808 158.188 109.656 159.788 111.352C161.388 113.016 162.188 115.272 162.188 118.12C162.188 121 161.388 123.272 159.788 124.936C158.188 126.6 156.108 127.432 153.548 127.432ZM153.548 122.872C154.412 122.872 155.1 122.488 155.612 121.72C156.124 120.952 156.38 119.752 156.38 118.12C156.38 116.488 156.124 115.288 155.612 114.52C155.1 113.752 154.412 113.368 153.548 113.368C152.684 113.368 151.996 113.752 151.484 114.52C150.972 115.288 150.716 116.488 150.716 118.12C150.716 119.752 150.972 120.952 151.484 121.72C151.996 122.488 152.684 122.872 153.548 122.872Z" fill="white"/>
<path d="M79.987 169L79.963 158.92L75.019 167.224H73.267L68.347 159.136V169H64.699V152.2H67.915L74.203 162.64L80.395 152.2H83.587L83.635 169H79.987ZM92.5649 155.896C94.5649 155.896 96.1009 156.376 97.1729 157.336C98.2449 158.28 98.7809 159.712 98.7809 161.632V169H95.2769V167.392C94.5729 168.592 93.2609 169.192 91.3409 169.192C90.3489 169.192 89.4849 169.024 88.7489 168.688C88.0289 168.352 87.4769 167.888 87.0929 167.296C86.7089 166.704 86.5169 166.032 86.5169 165.28C86.5169 164.08 86.9649 163.136 87.8609 162.448C88.7729 161.76 90.1729 161.416 92.0609 161.416H95.0369C95.0369 160.6 94.7889 159.976 94.2929 159.544C93.7969 159.096 93.0529 158.872 92.0609 158.872C91.3729 158.872 90.6929 158.984 90.0209 159.208C89.3649 159.416 88.8049 159.704 88.3409 160.072L86.9969 157.456C87.7009 156.96 88.5409 156.576 89.5169 156.304C90.5089 156.032 91.5249 155.896 92.5649 155.896ZM92.2769 166.672C92.9169 166.672 93.4849 166.528 93.9809 166.24C94.4769 165.936 94.8289 165.496 95.0369 164.92V163.6H92.4689C90.9329 163.6 90.1649 164.104 90.1649 165.112C90.1649 165.592 90.3489 165.976 90.7169 166.264C91.1009 166.536 91.6209 166.672 92.2769 166.672ZM105.745 157.792C106.193 157.168 106.793 156.696 107.545 156.376C108.313 156.056 109.193 155.896 110.185 155.896V159.352C109.769 159.32 109.489 159.304 109.345 159.304C108.273 159.304 107.433 159.608 106.825 160.216C106.217 160.808 105.913 161.704 105.913 162.904V169H102.169V156.088H105.745V157.792ZM117.956 163.936L116.156 165.712V169H112.412V151.192H116.156V161.272L121.628 156.088H126.092L120.716 161.56L126.572 169H122.036L117.956 163.936ZM140.341 162.592C140.341 162.64 140.317 162.976 140.269 163.6H130.501C130.677 164.4 131.093 165.032 131.749 165.496C132.405 165.96 133.221 166.192 134.197 166.192C134.869 166.192 135.461 166.096 135.973 165.904C136.501 165.696 136.989 165.376 137.437 164.944L139.429 167.104C138.213 168.496 136.437 169.192 134.101 169.192C132.645 169.192 131.357 168.912 130.237 168.352C129.117 167.776 128.253 166.984 127.645 165.976C127.037 164.968 126.733 163.824 126.733 162.544C126.733 161.28 127.029 160.144 127.621 159.136C128.229 158.112 129.053 157.32 130.093 156.76C131.149 156.184 132.325 155.896 133.621 155.896C134.885 155.896 136.029 156.168 137.053 156.712C138.077 157.256 138.877 158.04 139.453 159.064C140.045 160.072 140.341 161.248 140.341 162.592ZM133.645 158.728C132.797 158.728 132.085 158.968 131.509 159.448C130.933 159.928 130.581 160.584 130.453 161.416H136.813C136.685 160.6 136.333 159.952 135.757 159.472C135.181 158.976 134.477 158.728 133.645 158.728ZM151.161 168.376C150.793 168.648 150.337 168.856 149.793 169C149.265 169.128 148.705 169.192 148.113 169.192C146.577 169.192 145.385 168.8 144.537 168.016C143.705 167.232 143.289 166.08 143.289 164.56V159.256H141.297V156.376H143.289V153.232H147.033V156.376H150.249V159.256H147.033V164.512C147.033 165.056 147.169 165.48 147.441 165.784C147.729 166.072 148.129 166.216 148.641 166.216C149.233 166.216 149.737 166.056 150.153 165.736L151.161 168.376ZM153.263 156.088H157.007V169H153.263V156.088ZM155.135 154.288C154.447 154.288 153.887 154.088 153.455 153.688C153.023 153.288 152.807 152.792 152.807 152.2C152.807 151.608 153.023 151.112 153.455 150.712C153.887 150.312 154.447 150.112 155.135 150.112C155.823 150.112 156.383 150.304 156.815 150.688C157.247 151.072 157.463 151.552 157.463 152.128C157.463 152.752 157.247 153.272 156.815 153.688C156.383 154.088 155.823 154.288 155.135 154.288ZM168.33 155.896C169.93 155.896 171.218 156.376 172.194 157.336C173.186 158.296 173.682 159.72 173.682 161.608V169H169.938V162.184C169.938 161.16 169.714 160.4 169.266 159.904C168.818 159.392 168.17 159.136 167.322 159.136C166.378 159.136 165.626 159.432 165.066 160.024C164.506 160.6 164.226 161.464 164.226 162.616V169H160.482V156.088H164.058V157.6C164.554 157.056 165.17 156.64 165.906 156.352C166.642 156.048 167.45 155.896 168.33 155.896ZM190.536 156.088V166.84C190.536 169.208 189.92 170.968 188.688 172.12C187.456 173.272 185.656 173.848 183.288 173.848C182.04 173.848 180.856 173.696 179.736 173.392C178.616 173.088 177.688 172.648 176.952 172.072L178.44 169.384C178.984 169.832 179.672 170.184 180.504 170.44C181.336 170.712 182.168 170.848 183 170.848C184.296 170.848 185.248 170.552 185.856 169.96C186.48 169.384 186.792 168.504 186.792 167.32V166.768C185.816 167.84 184.456 168.376 182.712 168.376C181.528 168.376 180.44 168.12 179.448 167.608C178.472 167.08 177.696 166.344 177.12 165.4C176.544 164.456 176.256 163.368 176.256 162.136C176.256 160.904 176.544 159.816 177.12 158.872C177.696 157.928 178.472 157.2 179.448 156.688C180.44 156.16 181.528 155.896 182.712 155.896C184.584 155.896 186.008 156.512 186.984 157.744V156.088H190.536ZM183.456 165.304C184.448 165.304 185.256 165.016 185.88 164.44C186.52 163.848 186.84 163.08 186.84 162.136C186.84 161.192 186.52 160.432 185.88 159.856C185.256 159.264 184.448 158.968 183.456 158.968C182.464 158.968 181.648 159.264 181.008 159.856C180.368 160.432 180.048 161.192 180.048 162.136C180.048 163.08 180.368 163.848 181.008 164.44C181.648 165.016 182.464 165.304 183.456 165.304Z" fill="white"/>
<defs>
<filter id="filter0_d" x="4.34375" y="14.3503" width="246.313" height="246.299" filterUnits="userSpaceOnUse" color-interpolation-filters="sRGB">
<feFlood flood-opacity="0" result="BackgroundImageFix"/>
<feColorMatrix in="SourceAlpha" type="matrix" values="0 0 0 0 0 0 0 0 0 0 0 0 0 0 0 0 0 0 127 0" result="hardAlpha"/>
<feOffset dy="10"/>
<feGaussianBlur stdDeviation="10"/>
<feColorMatrix type="matrix" values="0 0 0 0 0.160784 0 0 0 0 0.160784 0 0 0 0 0.164706 0 0 0 0.07 0"/>
<feBlend mode="normal" in2="BackgroundImageFix" result="effect1_dropShadow"/>
<feBlend mode="normal" in="SourceGraphic" in2="effect1_dropShadow" result="shape"/>
</filter>
</defs>
</svg>
