<?xml version="1.0" encoding="UTF-8" standalone="no"?>
<svg
   width="255"
   height="261"
   viewBox="0 0 255 261"
   fill="none"
   version="1.1"
   id="svg139458"
   sodipodi:docname="Count-4.svg"
   inkscape:version="1.1.2 (b8e25be833, 2022-02-05)"
   xmlns:inkscape="http://www.inkscape.org/namespaces/inkscape"
   xmlns:sodipodi="http://sodipodi.sourceforge.net/DTD/sodipodi-0.dtd"
   xmlns="http://www.w3.org/2000/svg"
   xmlns:svg="http://www.w3.org/2000/svg">
  <sodipodi:namedview
     id="namedview139460"
     pagecolor="#ffffff"
     bordercolor="#999999"
     borderopacity="1"
     inkscape:pageshadow="0"
     inkscape:pageopacity="0"
     inkscape:pagecheckerboard="0"
     showgrid="false"
     inkscape:zoom="3.183908"
     inkscape:cx="127.35921"
     inkscape:cy="130.65704"
     inkscape:window-width="1920"
     inkscape:window-height="1017"
     inkscape:window-x="-8"
     inkscape:window-y="-8"
     inkscape:window-maximized="1"
     inkscape:current-layer="svg139458" />
  <g
     filter="url(#filter0_d)"
     id="g139435">
    <path
       d="M66.8701 44.0502C103.023 17.7837 151.977 17.7837 188.13 44.0502C224.283 70.3166 239.41 116.875 225.601 159.375C211.792 201.875 172.187 230.65 127.5 230.65C82.8129 230.65 43.2079 201.875 29.3988 159.375C15.5898 116.875 30.7175 70.3166 66.8701 44.0502Z"
       fill="#113CFC"
       id="path139433" />
  </g>
  <path
     d="M110.996 160.264C111.956 160.568 112.708 161.08 113.252 161.8C113.796 162.504 114.068 163.376 114.068 164.416C114.068 165.888 113.492 167.024 112.34 167.824C111.204 168.608 109.54 169 107.348 169H98.66V152.2H106.868C108.916 152.2 110.484 152.592 111.572 153.376C112.676 154.16 113.228 155.224 113.228 156.568C113.228 157.384 113.028 158.112 112.628 158.752C112.244 159.392 111.7 159.896 110.996 160.264ZM102.524 155.128V159.088H106.388C107.348 159.088 108.076 158.92 108.572 158.584C109.068 158.248 109.316 157.752 109.316 157.096C109.316 156.44 109.068 155.952 108.572 155.632C108.076 155.296 107.348 155.128 106.388 155.128H102.524ZM107.06 166.072C108.084 166.072 108.852 165.904 109.364 165.568C109.892 165.232 110.156 164.712 110.156 164.008C110.156 162.616 109.124 161.92 107.06 161.92H102.524V166.072H107.06ZM129.756 156.088V169H126.204V167.464C125.708 168.024 125.116 168.456 124.428 168.76C123.74 169.048 122.996 169.192 122.196 169.192C120.5 169.192 119.156 168.704 118.164 167.728C117.172 166.752 116.676 165.304 116.676 163.384V156.088H120.42V162.832C120.42 164.912 121.292 165.952 123.036 165.952C123.932 165.952 124.652 165.664 125.196 165.088C125.74 164.496 126.012 163.624 126.012 162.472V156.088H129.756ZM136.8 157.792C137.248 157.168 137.848 156.696 138.6 156.376C139.368 156.056 140.248 155.896 141.24 155.896V159.352C140.824 159.32 140.544 159.304 140.4 159.304C139.328 159.304 138.488 159.608 137.88 160.216C137.272 160.808 136.968 161.704 136.968 162.904V169H133.224V156.088H136.8V157.792ZM151.314 155.896C152.914 155.896 154.202 156.376 155.178 157.336C156.17 158.296 156.666 159.72 156.666 161.608V169H152.922V162.184C152.922 161.16 152.698 160.4 152.25 159.904C151.802 159.392 151.154 159.136 150.306 159.136C149.362 159.136 148.61 159.432 148.05 160.024C147.49 160.6 147.21 161.464 147.21 162.616V169H143.466V156.088H147.042V157.6C147.538 157.056 148.154 156.64 148.89 156.352C149.626 156.048 150.434 155.896 151.314 155.896Z"
     fill="white"
     id="path139439" />
  <defs
     id="defs139456">
    <filter
       id="filter0_d"
       x="4.34375"
       y="14.3503"
       width="246.313"
       height="246.299"
       filterUnits="userSpaceOnUse"
       color-interpolation-filters="sRGB">
      <feFlood
         flood-opacity="0"
         result="BackgroundImageFix"
         id="feFlood139441" />
      <feColorMatrix
         in="SourceAlpha"
         type="matrix"
         values="0 0 0 0 0 0 0 0 0 0 0 0 0 0 0 0 0 0 127 0"
         result="hardAlpha"
         id="feColorMatrix139443" />
      <feOffset
         dy="10"
         id="feOffset139445" />
      <feGaussianBlur
         stdDeviation="10"
         id="feGaussianBlur139447" />
      <feColorMatrix
         type="matrix"
         values="0 0 0 0 0.160784 0 0 0 0 0.160784 0 0 0 0 0.164706 0 0 0 0.07 0"
         id="feColorMatrix139449" />
      <feBlend
         mode="normal"
         in2="BackgroundImageFix"
         result="effect1_dropShadow"
         id="feBlend139451" />
      <feBlend
         mode="normal"
         in="SourceGraphic"
         in2="effect1_dropShadow"
         result="shape"
         id="feBlend139453" />
    </filter>
  </defs>
  <text
     xml:space="preserve"
     style="font-style:normal;font-variant:normal;font-weight:normal;font-stretch:normal;font-size:53.202px;line-height:1.25;font-family:Impact;-inkscape-font-specification:Impact;fill:#ffffff;fill-opacity:1;stroke-width:1.33005"
     x="77.535301"
     y="147.58714"
     id="text140622"
     transform="scale(1.1505305,0.8691643)"><tspan
       sodipodi:role="line"
       id="tspan140620"
       x="77.535301"
       y="147.58714"
       style="stroke-width:1.33005">3%</tspan></text>
</svg>
