<svg width="255" height="261" viewBox="0 0 255 261" fill="none" xmlns="http://www.w3.org/2000/svg">
<g filter="url(#filter0_d)">
<path d="M66.8701 44.0502C103.023 17.7837 151.977 17.7837 188.13 44.0502C224.283 70.3166 239.41 116.875 225.601 159.375C211.792 201.875 172.187 230.65 127.5 230.65C82.8129 230.65 43.2079 201.875 29.3988 159.375C15.5898 116.875 30.7175 70.3166 66.8701 44.0502Z" fill="#113CFC"/>
</g>
<path d="M110.598 106.84C113.382 107.416 115.51 108.568 116.982 110.296C118.486 111.992 119.238 114.056 119.238 116.488C119.238 118.472 118.694 120.312 117.606 122.008C116.55 123.704 114.918 125.08 112.71 126.136C110.534 127.16 107.83 127.672 104.598 127.672C102.23 127.672 99.8784 127.384 97.5424 126.808C95.2384 126.232 93.2384 125.416 91.5424 124.36L94.9984 117.208C96.3104 118.104 97.7824 118.792 99.4144 119.272C101.078 119.752 102.71 119.992 104.31 119.992C105.942 119.992 107.238 119.688 108.198 119.08C109.158 118.472 109.638 117.608 109.638 116.488C109.638 114.312 107.926 113.224 104.502 113.224H100.518V107.224L106.518 100.744H93.2704V93.4H117.558V99.352L110.598 106.84ZM129.836 111.592C127.308 111.592 125.244 110.76 123.644 109.096C122.044 107.432 121.244 105.16 121.244 102.28C121.244 100.392 121.612 98.744 122.348 97.336C123.084 95.928 124.092 94.856 125.372 94.12C126.684 93.352 128.172 92.968 129.836 92.968C132.396 92.968 134.476 93.816 136.076 95.512C137.676 97.176 138.476 99.432 138.476 102.28C138.476 105.16 137.676 107.432 136.076 109.096C134.476 110.76 132.396 111.592 129.836 111.592ZM149.708 93.4H156.62L133.676 127H126.764L149.708 93.4ZM129.836 107.032C130.7 107.032 131.388 106.648 131.9 105.88C132.412 105.112 132.668 103.912 132.668 102.28C132.668 100.648 132.412 99.448 131.9 98.68C131.388 97.912 130.7 97.528 129.836 97.528C129.004 97.528 128.316 97.928 127.772 98.728C127.26 99.496 127.004 100.68 127.004 102.28C127.004 103.88 127.26 105.08 127.772 105.88C128.316 106.648 129.004 107.032 129.836 107.032ZM153.548 127.432C150.988 127.432 148.908 126.6 147.307 124.936C145.74 123.272 144.956 121 144.956 118.12C144.956 115.272 145.756 113.016 147.356 111.352C148.956 109.656 151.02 108.808 153.548 108.808C156.108 108.808 158.188 109.656 159.788 111.352C161.388 113.016 162.188 115.272 162.188 118.12C162.188 121 161.388 123.272 159.788 124.936C158.188 126.6 156.108 127.432 153.548 127.432ZM153.548 122.872C154.412 122.872 155.1 122.488 155.612 121.72C156.124 120.952 156.38 119.752 156.38 118.12C156.38 116.488 156.124 115.288 155.612 114.52C155.1 113.752 154.412 113.368 153.548 113.368C152.684 113.368 151.996 113.752 151.484 114.52C150.972 115.288 150.716 116.488 150.716 118.12C150.716 119.752 150.972 120.952 151.484 121.72C151.996 122.488 152.684 122.872 153.548 122.872Z" fill="white"/>
<path d="M85.739 169L82.499 164.32H82.307H78.923V169H75.035V152.2H82.307C83.795 152.2 85.083 152.448 86.171 152.944C87.275 153.44 88.123 154.144 88.715 155.056C89.307 155.968 89.603 157.048 89.603 158.296C89.603 159.544 89.299 160.624 88.691 161.536C88.099 162.432 87.251 163.12 86.147 163.6L89.915 169H85.739ZM85.667 158.296C85.667 157.352 85.363 156.632 84.755 156.136C84.147 155.624 83.259 155.368 82.091 155.368H78.923V161.224H82.091C83.259 161.224 84.147 160.968 84.755 160.456C85.363 159.944 85.667 159.224 85.667 158.296ZM105.067 162.592C105.067 162.64 105.043 162.976 104.995 163.6H95.2274C95.4034 164.4 95.8194 165.032 96.4754 165.496C97.1314 165.96 97.9474 166.192 98.9234 166.192C99.5954 166.192 100.187 166.096 100.699 165.904C101.227 165.696 101.715 165.376 102.163 164.944L104.155 167.104C102.939 168.496 101.163 169.192 98.8274 169.192C97.3714 169.192 96.0834 168.912 94.9634 168.352C93.8434 167.776 92.9794 166.984 92.3714 165.976C91.7634 164.968 91.4594 163.824 91.4594 162.544C91.4594 161.28 91.7554 160.144 92.3474 159.136C92.9554 158.112 93.7794 157.32 94.8194 156.76C95.8754 156.184 97.0514 155.896 98.3474 155.896C99.6114 155.896 100.755 156.168 101.779 156.712C102.803 157.256 103.603 158.04 104.179 159.064C104.771 160.072 105.067 161.248 105.067 162.592ZM98.3714 158.728C97.5234 158.728 96.8114 158.968 96.2354 159.448C95.6594 159.928 95.3074 160.584 95.1794 161.416H101.539C101.411 160.6 101.059 159.952 100.483 159.472C99.9074 158.976 99.2034 158.728 98.3714 158.728ZM128.062 156.088L123.382 169H119.782L116.878 160.984L113.878 169H110.278L105.622 156.088H109.15L112.198 164.824L115.366 156.088H118.534L121.606 164.824L124.75 156.088H128.062ZM134.588 155.896C136.588 155.896 138.124 156.376 139.196 157.336C140.268 158.28 140.804 159.712 140.804 161.632V169H137.3V167.392C136.596 168.592 135.284 169.192 133.364 169.192C132.372 169.192 131.508 169.024 130.772 168.688C130.052 168.352 129.5 167.888 129.116 167.296C128.732 166.704 128.54 166.032 128.54 165.28C128.54 164.08 128.988 163.136 129.884 162.448C130.796 161.76 132.196 161.416 134.084 161.416H137.06C137.06 160.6 136.812 159.976 136.316 159.544C135.82 159.096 135.076 158.872 134.084 158.872C133.396 158.872 132.716 158.984 132.044 159.208C131.388 159.416 130.828 159.704 130.364 160.072L129.02 157.456C129.724 156.96 130.564 156.576 131.54 156.304C132.532 156.032 133.548 155.896 134.588 155.896ZM134.3 166.672C134.94 166.672 135.508 166.528 136.004 166.24C136.5 165.936 136.852 165.496 137.06 164.92V163.6H134.492C132.956 163.6 132.188 164.104 132.188 165.112C132.188 165.592 132.372 165.976 132.74 166.264C133.124 166.536 133.644 166.672 134.3 166.672ZM147.769 157.792C148.217 157.168 148.817 156.696 149.569 156.376C150.337 156.056 151.217 155.896 152.209 155.896V159.352C151.793 159.32 151.513 159.304 151.369 159.304C150.297 159.304 149.457 159.608 148.849 160.216C148.241 160.808 147.937 161.704 147.937 162.904V169H144.193V156.088H147.769V157.792ZM167.47 151.192V169H163.894V167.512C162.966 168.632 161.622 169.192 159.862 169.192C158.646 169.192 157.542 168.92 156.55 168.376C155.574 167.832 154.806 167.056 154.246 166.048C153.686 165.04 153.406 163.872 153.406 162.544C153.406 161.216 153.686 160.048 154.246 159.04C154.806 158.032 155.574 157.256 156.55 156.712C157.542 156.168 158.646 155.896 159.862 155.896C161.51 155.896 162.798 156.416 163.726 157.456V151.192H167.47ZM160.51 166.12C161.454 166.12 162.238 165.8 162.862 165.16C163.486 164.504 163.798 163.632 163.798 162.544C163.798 161.456 163.486 160.592 162.862 159.952C162.238 159.296 161.454 158.968 160.51 158.968C159.55 158.968 158.758 159.296 158.134 159.952C157.51 160.592 157.198 161.456 157.198 162.544C157.198 163.632 157.51 164.504 158.134 165.16C158.758 165.8 159.55 166.12 160.51 166.12ZM175.279 169.192C174.207 169.192 173.159 169.064 172.135 168.808C171.111 168.536 170.295 168.2 169.687 167.8L170.935 165.112C171.511 165.48 172.207 165.784 173.023 166.024C173.839 166.248 174.639 166.36 175.423 166.36C177.007 166.36 177.799 165.968 177.799 165.184C177.799 164.816 177.583 164.552 177.151 164.392C176.719 164.232 176.055 164.096 175.159 163.984C174.103 163.824 173.231 163.64 172.543 163.432C171.855 163.224 171.255 162.856 170.743 162.328C170.247 161.8 169.999 161.048 169.999 160.072C169.999 159.256 170.231 158.536 170.695 157.912C171.175 157.272 171.863 156.776 172.759 156.424C173.671 156.072 174.743 155.896 175.975 155.896C176.887 155.896 177.791 156 178.687 156.208C179.599 156.4 180.351 156.672 180.943 157.024L179.695 159.688C178.559 159.048 177.319 158.728 175.975 158.728C175.175 158.728 174.575 158.84 174.175 159.064C173.775 159.288 173.575 159.576 173.575 159.928C173.575 160.328 173.791 160.608 174.223 160.768C174.655 160.928 175.343 161.08 176.287 161.224C177.343 161.4 178.207 161.592 178.879 161.8C179.551 161.992 180.135 162.352 180.631 162.88C181.127 163.408 181.375 164.144 181.375 165.088C181.375 165.888 181.135 166.6 180.655 167.224C180.175 167.848 179.471 168.336 178.543 168.688C177.631 169.024 176.543 169.192 175.279 169.192Z" fill="white"/>
<defs>
<filter id="filter0_d" x="4.34375" y="14.3503" width="246.313" height="246.299" filterUnits="userSpaceOnUse" color-interpolation-filters="sRGB">
<feFlood flood-opacity="0" result="BackgroundImageFix"/>
<feColorMatrix in="SourceAlpha" type="matrix" values="0 0 0 0 0 0 0 0 0 0 0 0 0 0 0 0 0 0 127 0" result="hardAlpha"/>
<feOffset dy="10"/>
<feGaussianBlur stdDeviation="10"/>
<feColorMatrix type="matrix" values="0 0 0 0 0.160784 0 0 0 0 0.160784 0 0 0 0 0.164706 0 0 0 0.07 0"/>
<feBlend mode="normal" in2="BackgroundImageFix" result="effect1_dropShadow"/>
<feBlend mode="normal" in="SourceGraphic" in2="effect1_dropShadow" result="shape"/>
</filter>
</defs>
</svg>
