<svg width="255" height="261" viewBox="0 0 255 261" fill="none" xmlns="http://www.w3.org/2000/svg">
<g filter="url(#filter0_d)">
<path d="M66.8701 44.0502C103.023 17.7837 151.977 17.7837 188.13 44.0502C224.283 70.3166 239.41 116.875 225.601 159.375C211.792 201.875 172.187 230.65 127.5 230.65C82.8129 230.65 43.2079 201.875 29.3988 159.375C15.5898 116.875 30.7175 70.3166 66.8701 44.0502Z" fill="#113CFC"/>
</g>
<path d="M110.598 106.84C113.382 107.416 115.51 108.568 116.982 110.296C118.486 111.992 119.238 114.056 119.238 116.488C119.238 118.472 118.694 120.312 117.606 122.008C116.55 123.704 114.918 125.08 112.71 126.136C110.534 127.16 107.83 127.672 104.598 127.672C102.23 127.672 99.8784 127.384 97.5424 126.808C95.2384 126.232 93.2384 125.416 91.5424 124.36L94.9984 117.208C96.3104 118.104 97.7824 118.792 99.4144 119.272C101.078 119.752 102.71 119.992 104.31 119.992C105.942 119.992 107.238 119.688 108.198 119.08C109.158 118.472 109.638 117.608 109.638 116.488C109.638 114.312 107.926 113.224 104.502 113.224H100.518V107.224L106.518 100.744H93.2704V93.4H117.558V99.352L110.598 106.84ZM129.836 111.592C127.308 111.592 125.244 110.76 123.644 109.096C122.044 107.432 121.244 105.16 121.244 102.28C121.244 100.392 121.612 98.744 122.348 97.336C123.084 95.928 124.092 94.856 125.372 94.12C126.684 93.352 128.172 92.968 129.836 92.968C132.396 92.968 134.476 93.816 136.076 95.512C137.676 97.176 138.476 99.432 138.476 102.28C138.476 105.16 137.676 107.432 136.076 109.096C134.476 110.76 132.396 111.592 129.836 111.592ZM149.708 93.4H156.62L133.676 127H126.764L149.708 93.4ZM129.836 107.032C130.7 107.032 131.388 106.648 131.9 105.88C132.412 105.112 132.668 103.912 132.668 102.28C132.668 100.648 132.412 99.448 131.9 98.68C131.388 97.912 130.7 97.528 129.836 97.528C129.004 97.528 128.316 97.928 127.772 98.728C127.26 99.496 127.004 100.68 127.004 102.28C127.004 103.88 127.26 105.08 127.772 105.88C128.316 106.648 129.004 107.032 129.836 107.032ZM153.548 127.432C150.988 127.432 148.908 126.6 147.307 124.936C145.74 123.272 144.956 121 144.956 118.12C144.956 115.272 145.756 113.016 147.356 111.352C148.956 109.656 151.02 108.808 153.548 108.808C156.108 108.808 158.188 109.656 159.788 111.352C161.388 113.016 162.188 115.272 162.188 118.12C162.188 121 161.388 123.272 159.788 124.936C158.188 126.6 156.108 127.432 153.548 127.432ZM153.548 122.872C154.412 122.872 155.1 122.488 155.612 121.72C156.124 120.952 156.38 119.752 156.38 118.12C156.38 116.488 156.124 115.288 155.612 114.52C155.1 113.752 154.412 113.368 153.548 113.368C152.684 113.368 151.996 113.752 151.484 114.52C150.972 115.288 150.716 116.488 150.716 118.12C150.716 119.752 150.972 120.952 151.484 121.72C151.996 122.488 152.684 122.872 153.548 122.872Z" fill="white"/>
<path d="M74.3201 152.2H78.2081V165.832H86.6321V169H74.3201V152.2ZM88.5405 156.088H92.2845V169H88.5405V156.088ZM90.4125 154.288C89.7245 154.288 89.1645 154.088 88.7325 153.688C88.3005 153.288 88.0845 152.792 88.0845 152.2C88.0845 151.608 88.3005 151.112 88.7325 150.712C89.1645 150.312 89.7245 150.112 90.4125 150.112C91.1005 150.112 91.6605 150.304 92.0925 150.688C92.5245 151.072 92.7405 151.552 92.7405 152.128C92.7405 152.752 92.5245 153.272 92.0925 153.688C91.6605 154.088 91.1005 154.288 90.4125 154.288ZM108.863 156.088V173.656H105.119V167.632C104.191 168.672 102.903 169.192 101.255 169.192C100.039 169.192 98.9353 168.92 97.9433 168.376C96.9673 167.832 96.1993 167.056 95.6393 166.048C95.0793 165.04 94.7993 163.872 94.7993 162.544C94.7993 161.216 95.0793 160.048 95.6393 159.04C96.1993 158.032 96.9673 157.256 97.9433 156.712C98.9353 156.168 100.039 155.896 101.255 155.896C103.015 155.896 104.359 156.456 105.287 157.576V156.088H108.863ZM101.903 166.12C102.847 166.12 103.631 165.8 104.255 165.16C104.879 164.504 105.191 163.632 105.191 162.544C105.191 161.456 104.879 160.592 104.255 159.952C103.631 159.296 102.847 158.968 101.903 158.968C100.943 158.968 100.151 159.296 99.5273 159.952C98.9033 160.592 98.5913 161.456 98.5913 162.544C98.5913 163.632 98.9033 164.504 99.5273 165.16C100.151 165.8 100.943 166.12 101.903 166.12ZM125.338 156.088V169H121.786V167.464C121.29 168.024 120.698 168.456 120.01 168.76C119.322 169.048 118.578 169.192 117.778 169.192C116.082 169.192 114.738 168.704 113.746 167.728C112.754 166.752 112.258 165.304 112.258 163.384V156.088H116.002V162.832C116.002 164.912 116.874 165.952 118.618 165.952C119.514 165.952 120.234 165.664 120.778 165.088C121.322 164.496 121.594 163.624 121.594 162.472V156.088H125.338ZM128.806 156.088H132.55V169H128.806V156.088ZM130.678 154.288C129.99 154.288 129.43 154.088 128.998 153.688C128.566 153.288 128.35 152.792 128.35 152.2C128.35 151.608 128.566 151.112 128.998 150.712C129.43 150.312 129.99 150.112 130.678 150.112C131.366 150.112 131.926 150.304 132.358 150.688C132.79 151.072 133.006 151.552 133.006 152.128C133.006 152.752 132.79 153.272 132.358 153.688C131.926 154.088 131.366 154.288 130.678 154.288ZM149.177 151.192V169H145.601V167.512C144.673 168.632 143.329 169.192 141.569 169.192C140.353 169.192 139.249 168.92 138.257 168.376C137.281 167.832 136.513 167.056 135.953 166.048C135.393 165.04 135.113 163.872 135.113 162.544C135.113 161.216 135.393 160.048 135.953 159.04C136.513 158.032 137.281 157.256 138.257 156.712C139.249 156.168 140.353 155.896 141.569 155.896C143.217 155.896 144.505 156.416 145.433 157.456V151.192H149.177ZM142.217 166.12C143.161 166.12 143.945 165.8 144.569 165.16C145.193 164.504 145.505 163.632 145.505 162.544C145.505 161.456 145.193 160.592 144.569 159.952C143.945 159.296 143.161 158.968 142.217 158.968C141.257 158.968 140.465 159.296 139.841 159.952C139.217 160.592 138.905 161.456 138.905 162.544C138.905 163.632 139.217 164.504 139.841 165.16C140.465 165.8 141.257 166.12 142.217 166.12ZM152.642 156.088H156.386V169H152.642V156.088ZM154.514 154.288C153.826 154.288 153.266 154.088 152.834 153.688C152.402 153.288 152.186 152.792 152.186 152.2C152.186 151.608 152.402 151.112 152.834 150.712C153.266 150.312 153.826 150.112 154.514 150.112C155.202 150.112 155.762 150.304 156.194 150.688C156.626 151.072 156.842 151.552 156.842 152.128C156.842 152.752 156.626 153.272 156.194 153.688C155.762 154.088 155.202 154.288 154.514 154.288ZM168.189 168.376C167.821 168.648 167.365 168.856 166.821 169C166.293 169.128 165.733 169.192 165.141 169.192C163.605 169.192 162.413 168.8 161.565 168.016C160.733 167.232 160.317 166.08 160.317 164.56V159.256H158.325V156.376H160.317V153.232H164.061V156.376H167.277V159.256H164.061V164.512C164.061 165.056 164.197 165.48 164.469 165.784C164.757 166.072 165.157 166.216 165.669 166.216C166.261 166.216 166.765 166.056 167.181 165.736L168.189 168.376ZM182.872 156.088L177.04 169.792C176.448 171.28 175.712 172.328 174.832 172.936C173.968 173.544 172.92 173.848 171.688 173.848C171.016 173.848 170.352 173.744 169.696 173.536C169.04 173.328 168.504 173.04 168.088 172.672L169.456 170.008C169.744 170.264 170.072 170.464 170.44 170.608C170.824 170.752 171.2 170.824 171.568 170.824C172.08 170.824 172.496 170.696 172.816 170.44C173.136 170.2 173.424 169.792 173.68 169.216L173.728 169.096L168.136 156.088H172L175.624 164.848L179.272 156.088H182.872Z" fill="white"/>
<defs>
<filter id="filter0_d" x="4.34375" y="14.3503" width="246.313" height="246.299" filterUnits="userSpaceOnUse" color-interpolation-filters="sRGB">
<feFlood flood-opacity="0" result="BackgroundImageFix"/>
<feColorMatrix in="SourceAlpha" type="matrix" values="0 0 0 0 0 0 0 0 0 0 0 0 0 0 0 0 0 0 127 0" result="hardAlpha"/>
<feOffset dy="10"/>
<feGaussianBlur stdDeviation="10"/>
<feColorMatrix type="matrix" values="0 0 0 0 0.160784 0 0 0 0 0.160784 0 0 0 0 0.164706 0 0 0 0.07 0"/>
<feBlend mode="normal" in2="BackgroundImageFix" result="effect1_dropShadow"/>
<feBlend mode="normal" in="SourceGraphic" in2="effect1_dropShadow" result="shape"/>
</filter>
</defs>
</svg>
